<svg width="80" height="25" viewBox="0 0 80 25" fill="none" xmlns="http://www.w3.org/2000/svg">
<g clip-path="url(#clip0_876_3557)">
<path d="M5.97362 12.9077H2.98681C1.33809 12.9077 0 11.5696 0 9.92089C0 8.27217 1.33809 6.93408 2.98681 6.93408H5.97362V12.9077Z" fill="#F9F9F9"/>
<path d="M5.9736 12.9077H8.96041C10.6091 12.9077 11.9472 14.2458 11.9472 15.8945C11.9472 17.5432 10.6091 18.8813 8.96041 18.8813H5.9736V12.9077Z" fill="#F9F9F9"/>
<path d="M5.9736 6.93407V2.45385C5.9736 1.62949 6.64265 0.960449 7.46701 0.960449H14.934C16.5827 0.960449 17.9208 2.29854 17.9208 3.94726C17.9208 5.59598 16.5827 6.93407 14.934 6.93407H5.9736Z" fill="#F9F9F9"/>
<path d="M2.98681 18.8813C1.33809 18.8813 0 20.2194 0 21.8682C0 23.5169 1.33809 24.855 2.98681 24.855H4.48021C5.30457 24.855 5.97362 24.1859 5.97362 23.3616V18.8813H2.98681Z" fill="#F9F9F9"/>
<path fill-rule="evenodd" clip-rule="evenodd" d="M35.7362 0.960449C35.8616 0.960449 35.9632 1.062 35.9632 1.18944V2.34035C35.9632 2.46779 35.8616 2.56934 35.7362 2.56934H32.0863C31.9608 2.56934 31.8593 2.67289 31.8593 2.79833V4.89109C31.8593 5.01853 31.9608 5.12008 32.0863 5.12008H34.7764C34.9018 5.12008 35.0034 5.22362 35.0034 5.34907V6.47211C35.0034 6.59954 34.9018 6.70109 34.7764 6.70109H32.0863C31.9608 6.70109 31.8593 6.80464 31.8593 6.93008V10.6736C31.8593 10.801 31.7577 10.9025 31.6323 10.9025H30.113C29.9876 10.9025 29.886 10.799 29.886 10.6736V1.18944C29.886 1.062 29.9876 0.960449 30.113 0.960449H35.7362ZM38.3765 10.5262C38.3745 10.5262 38.3745 10.5262 38.3725 10.5262C37.7712 10.1897 37.2993 9.7118 36.9568 9.09452C36.6143 8.47725 36.443 7.7644 36.443 6.95796C36.443 6.15152 36.6203 5.43867 36.9727 4.8214C37.3251 4.20412 37.807 3.72822 38.4183 3.38972C39.0296 3.05321 39.7106 2.88395 40.4633 2.88395C41.216 2.88395 41.897 3.05121 42.5083 3.38972C43.1196 3.72822 43.6014 4.20412 43.9539 4.8214C44.3063 5.43867 44.4835 6.15152 44.4835 6.95796C44.4835 7.7644 44.3023 8.47725 43.9419 9.09452C43.5795 9.7118 43.0917 10.1877 42.4744 10.5262C41.8591 10.8647 41.1702 11.032 40.4095 11.032C39.6489 11.032 38.9818 10.8647 38.3805 10.5262C38.3785 10.5262 38.3785 10.5262 38.3765 10.5262ZM41.4131 9.0308C41.7277 8.85558 41.9806 8.59075 42.1678 8.2403C42.3549 7.88984 42.4505 7.46174 42.4505 6.95796C42.4505 6.20728 42.2554 5.63182 41.8651 5.22561C41.4748 4.82339 40.9989 4.62028 40.4354 4.62028C39.8719 4.62028 39.398 4.8214 39.0177 5.22561C38.6373 5.62983 38.4462 6.20728 38.4462 6.95796C38.4462 7.70864 38.6334 8.2841 39.0037 8.69031C39.3741 9.09452 39.842 9.29564 40.4055 9.29564C40.762 9.29564 41.0985 9.20802 41.4131 9.0328C41.4131 9.0328 41.4131 9.0328 41.4131 9.0308ZM48.4759 3.25233C48.4739 3.25432 48.4739 3.25432 48.4739 3.25432C48.0657 3.49127 47.7352 3.81783 47.4803 4.23598V3.24038C47.4803 3.11294 47.3787 3.01139 47.2533 3.01139H45.734C45.6086 3.01139 45.507 3.11493 45.507 3.24038V10.6736C45.507 10.801 45.6086 10.9025 45.734 10.9025H47.2533C47.3787 10.9025 47.4803 10.799 47.4803 10.6736V6.96991C47.4803 6.23913 47.6376 5.7254 47.9522 5.43071C48.2668 5.138 48.7348 4.98866 49.354 4.98866H49.6487C49.7742 4.98866 49.8757 4.88511 49.8757 4.75967V3.1229C49.8757 2.99546 49.7742 2.89192 49.6487 2.90187C49.2166 2.93373 48.8244 3.04922 48.4759 3.25233ZM58.0158 7.36417C58.0038 7.47567 57.9082 7.55532 57.7967 7.55532L52.524 7.55333C52.3906 7.55333 52.2851 7.66882 52.309 7.80024C52.3866 8.25423 52.5738 8.61663 52.8705 8.89142C53.2189 9.214 53.6471 9.37528 54.1548 9.37528C54.8378 9.37528 55.3376 9.09851 55.6542 8.54694C55.698 8.47128 55.7757 8.4215 55.8613 8.4215H57.5438C57.6952 8.4215 57.8047 8.56885 57.7489 8.71221C57.506 9.34143 57.1078 9.8691 56.5522 10.2932C55.913 10.7831 55.1285 11.028 54.1966 11.028C53.4459 11.028 52.7689 10.8607 52.1736 10.5222C51.5762 10.1857 51.1103 9.70781 50.7777 9.09054C50.4432 8.47327 50.2759 7.76042 50.2759 6.95398C50.2759 6.14754 50.4412 5.42075 50.7678 4.80348C51.0983 4.1862 51.5563 3.7103 52.1497 3.37777C52.7411 3.04524 53.424 2.87997 54.1946 2.87997C54.9652 2.87997 55.6024 3.04126 56.1898 3.36383C56.7772 3.68641 57.2332 4.14439 57.5578 4.73976C57.8823 5.33513 58.0436 6.01612 58.0436 6.78473C58.0436 6.99579 58.0357 7.18695 58.0158 7.36417ZM55.7677 6.21723C55.8951 6.21723 55.9987 6.1117 55.9827 5.98426C55.929 5.57805 55.7518 5.24552 55.4491 4.98467C55.0907 4.67604 54.6546 4.52272 54.1369 4.52272C53.6471 4.52272 53.2369 4.67206 52.9023 4.97273C52.6236 5.22163 52.4364 5.55018 52.3388 5.96037C52.307 6.09577 52.4145 6.21922 52.5519 6.21922L55.7677 6.21723ZM62.5298 8.40357C62.4621 8.61464 62.1674 8.61464 62.0977 8.40357L60.3913 3.1687C60.3614 3.07511 60.2738 3.01139 60.1762 3.01139H58.5514C58.3941 3.01139 58.2846 3.17069 58.3383 3.32003L61.0464 10.7532C61.0802 10.8428 61.1639 10.9025 61.2594 10.9025H63.3402C63.4358 10.9025 63.5195 10.8428 63.5533 10.7532L66.2753 3.32003C66.331 3.17069 66.2195 3.01139 66.0622 3.01139H64.4513C64.3538 3.01139 64.2662 3.07511 64.2363 3.1687L62.5298 8.40357ZM74.3138 7.36417C74.3018 7.47567 74.2063 7.55532 74.0947 7.55532L68.822 7.55333C68.6886 7.55333 68.5831 7.66882 68.607 7.80024C68.6846 8.25423 68.8718 8.61663 69.1685 8.89142C69.517 9.214 69.9451 9.37528 70.4528 9.37528C71.1358 9.37528 71.6356 9.09851 71.9522 8.54694C71.996 8.47128 72.0737 8.4215 72.1593 8.4215H73.8419C73.9932 8.4215 74.1027 8.56885 74.047 8.71221C73.804 9.34143 73.4058 9.8691 72.8502 10.2932C72.2111 10.7831 71.4265 11.028 70.4946 11.028C69.744 11.028 69.0669 10.8607 68.4716 10.5222C67.8742 10.1857 67.4083 9.70781 67.0757 9.09054C66.7412 8.47327 66.574 7.76042 66.574 6.95398C66.574 6.14754 66.7392 5.42075 67.0658 4.80348C67.3963 4.1862 67.8543 3.7103 68.4477 3.37777C69.0391 3.04524 69.7221 2.87997 70.4927 2.87997C71.2633 2.87997 71.9004 3.04126 72.4878 3.36383C73.0752 3.68641 73.5312 4.14439 73.8558 4.73976C74.1804 5.33513 74.3417 6.01612 74.3417 6.78473C74.3436 6.99579 74.3337 7.18695 74.3138 7.36417ZM72.0677 6.21723C72.1951 6.21723 72.2987 6.1117 72.2827 5.98426C72.229 5.57805 72.0518 5.24552 71.7491 4.98467C71.3907 4.67604 70.9546 4.52272 70.4369 4.52272C69.9471 4.52272 69.5369 4.67206 69.2024 4.97273C68.9236 5.22163 68.7364 5.55018 68.6388 5.96037C68.607 6.09577 68.7145 6.21922 68.8519 6.21922L72.0677 6.21723ZM78.3261 3.25233L78.3241 3.25432C77.9159 3.49127 77.5853 3.81783 77.3305 4.23598V3.24038C77.3305 3.11294 77.2289 3.01139 77.1035 3.01139H75.5842C75.4587 3.01139 75.3572 3.11493 75.3572 3.24038V10.6736C75.3572 10.801 75.4587 10.9025 75.5842 10.9025H77.1035C77.2289 10.9025 77.3305 10.799 77.3305 10.6736V6.96991C77.3305 6.23913 77.4878 5.7254 77.8044 5.43071C78.119 5.138 78.5869 4.98866 79.2062 4.98866H79.5009C79.6263 4.98866 79.7279 4.88511 79.7279 4.75967V3.1229C79.7279 2.99546 79.6263 2.89192 79.5009 2.90187C79.0668 2.93373 78.6745 3.04922 78.3261 3.25233ZM35.7541 22.9394H31.8334L31.1843 24.835H29.1114L32.6518 14.877H34.9496L38.49 24.835H36.4032L35.7541 22.9394ZM35.2184 21.3424L33.7947 17.1828L32.371 21.3424H35.2184ZM46.7654 17.1709C46.7654 17.0454 46.6639 16.9419 46.5384 16.9419L45.0032 16.9399C44.8778 16.9399 44.7762 17.0434 44.7762 17.1689V21.2847C44.7762 21.9099 44.6209 22.3938 44.3123 22.7303C44.0017 23.0688 43.5636 23.2361 43.028 23.2361C42.4923 23.2361 42.0682 23.0688 41.7596 22.7303C41.4489 22.3938 41.2956 21.9119 41.2956 21.2847V17.1689C41.2956 17.0414 41.1941 16.9399 41.0686 16.9399H39.5493C39.4239 16.9399 39.3223 17.0434 39.3223 17.1689V21.5694C39.3223 22.2723 39.4557 22.8776 39.7245 23.3854C39.9934 23.8932 40.3617 24.2775 40.8317 24.5383C41.3016 24.7992 41.8412 24.9306 42.4525 24.9306C42.9324 24.9306 43.3764 24.833 43.7846 24.6399C44.1928 24.4467 44.5253 24.1779 44.7782 23.8354V24.604C44.7782 24.7315 44.8798 24.833 45.0052 24.833H46.5384C46.6639 24.833 46.7654 24.7295 46.7654 24.604V17.1709ZM48.2529 18.7359C48.5675 18.1187 48.9976 17.6428 49.5432 17.3102C50.0888 16.9777 50.6941 16.8124 51.3631 16.8124C51.8709 16.8124 52.3548 16.9239 52.8147 17.147C53.2747 17.37 53.6411 17.6667 53.9139 18.037V14.5206C53.9139 14.3931 54.0154 14.2916 54.1409 14.2916H55.688C55.8135 14.2916 55.915 14.3951 55.915 14.5206V24.604C55.915 24.7315 55.8135 24.833 55.688 24.833H54.1409C54.0154 24.833 53.9139 24.7295 53.9139 24.604V23.6642C53.6709 24.0544 53.3265 24.3671 52.8844 24.604C52.4424 24.843 51.9306 24.9604 51.3472 24.9604C50.6901 24.9604 50.0888 24.7892 49.5432 24.4467C48.9976 24.1062 48.5675 23.6224 48.2529 23.0011C47.9383 22.3779 47.781 21.663 47.781 20.8566C47.777 20.0521 47.9343 19.3552 48.2529 18.7359ZM53.6451 19.6399C53.4579 19.2935 53.203 19.0267 52.8844 18.8415C52.5638 18.6563 52.2213 18.5627 51.855 18.5627C51.4866 18.5627 51.1501 18.6523 50.8395 18.8335C50.5288 19.0127 50.2779 19.2775 50.0848 19.624C49.8916 19.9705 49.7961 20.3827 49.7961 20.8566C49.7961 21.3305 49.8916 21.7466 50.0848 22.1031C50.2779 22.4595 50.5308 22.7323 50.8454 22.9215C51.16 23.1106 51.4966 23.2062 51.853 23.2062C52.2094 23.2062 52.5638 23.1126 52.8824 22.9274C53.201 22.7422 53.4559 22.4754 53.6431 22.129C53.8302 21.7825 53.9258 21.3663 53.9258 20.8825C53.9278 20.4026 53.8342 19.9884 53.6451 19.6399ZM57.2113 14.8312C57.2113 15.1637 57.3268 15.4425 57.5578 15.6655C57.7888 15.8885 58.0775 16 58.424 16C58.7724 16 59.0592 15.8885 59.2901 15.6655C59.5211 15.4425 59.6366 15.1637 59.6366 14.8312C59.6366 14.4987 59.5211 14.2199 59.2901 13.9969C59.0592 13.7739 58.7704 13.6623 58.424 13.6623C58.0775 13.6623 57.7888 13.7739 57.5578 13.9969C57.3268 14.2219 57.2113 14.4987 57.2113 14.8312ZM59.3977 17.1709C59.3977 17.0454 59.2961 16.9419 59.1707 16.9419H57.6514C57.5259 16.9419 57.4244 17.0454 57.4244 17.1709V24.604C57.4244 24.7315 57.5259 24.833 57.6514 24.833H59.1707C59.2961 24.833 59.3977 24.7295 59.3977 24.604V17.1709ZM62.3606 24.4547C61.7592 24.1182 61.2853 23.6403 60.9428 23.023C60.6003 22.4057 60.4291 21.6929 60.4291 20.8864C60.4291 20.08 60.6063 19.3672 60.9588 18.7499C61.3112 18.1326 61.7931 17.6567 62.4044 17.3182C63.0157 16.9817 63.6967 16.8124 64.4493 16.8124C65.202 16.8124 65.883 16.9797 66.4943 17.3182C67.1056 17.6567 67.5875 18.1326 67.9399 18.7499C68.2924 19.3672 68.4696 20.08 68.4696 20.8864C68.4696 21.6929 68.2884 22.4057 67.928 23.023C67.5656 23.6403 67.0777 24.1162 66.4605 24.4547C65.8452 24.7932 65.1562 24.9604 64.3956 24.9604C63.6349 24.9604 62.9679 24.7932 62.3646 24.4547H62.3606ZM65.3991 22.9593C65.7138 22.7841 65.9666 22.5192 66.1538 22.1688C66.341 21.8183 66.4366 21.3902 66.4366 20.8864C66.4366 20.1358 66.2414 19.5603 65.8512 19.1541C65.4609 18.7519 64.985 18.5488 64.4215 18.5488C63.858 18.5488 63.384 18.7499 63.0037 19.1541C62.6234 19.5583 62.4323 20.1358 62.4323 20.8864C62.4323 21.6371 62.6174 22.2126 62.9898 22.6188C63.3602 23.023 63.8281 23.2241 64.3916 23.2241C64.748 23.2241 65.0845 23.1365 65.3991 22.9593ZM69.9331 16.2808C69.8515 16.1334 69.736 16.0179 69.5906 15.9343C69.4433 15.8527 69.278 15.8109 69.0928 15.8109C68.9076 15.8109 68.7424 15.8507 68.595 15.9343C68.4477 16.0179 68.3342 16.1334 68.2506 16.2808C68.1669 16.4301 68.1251 16.6014 68.1251 16.7885C68.1251 16.9757 68.1669 17.141 68.2506 17.2883C68.3322 17.4357 68.4477 17.5512 68.595 17.6348C68.7424 17.7204 68.9076 17.7602 69.0928 17.7602C69.278 17.7602 69.4433 17.7184 69.5906 17.6348C69.738 17.5512 69.8515 17.4357 69.9331 17.2883C70.0148 17.141 70.0546 16.9777 70.0546 16.7885C70.0546 16.5994 70.0168 16.4301 69.9331 16.2808ZM69.8156 16.7905C69.8156 17.0096 69.7499 17.1888 69.6185 17.3242V17.3222C69.4871 17.4596 69.3119 17.5273 69.0948 17.5273C68.8778 17.5273 68.7026 17.4616 68.5731 17.3262C68.4417 17.1928 68.378 17.0135 68.378 16.7905C68.378 16.5675 68.4437 16.3883 68.5731 16.2509C68.7026 16.1135 68.8778 16.0458 69.0948 16.0458C69.3119 16.0458 69.4871 16.1135 69.6185 16.2509C69.7499 16.3863 69.8156 16.5695 69.8156 16.7905ZM69.3397 16.8901C69.3975 16.8662 69.4413 16.8284 69.4732 16.7806H69.4712C69.503 16.7308 69.519 16.6731 69.519 16.6053C69.519 16.5098 69.4851 16.4341 69.4234 16.3744C69.3616 16.3146 69.276 16.2848 69.1705 16.2848H68.6946V17.2664H68.9992V16.922H69.0271L69.2223 17.2664H69.5767L69.3397 16.8901ZM69.1386 16.693H68.9933V16.5516H69.1386C69.1904 16.5516 69.2163 16.5735 69.2163 16.6193C69.2163 16.6452 69.2083 16.6631 69.1924 16.675C69.1785 16.687 69.1605 16.693 69.1386 16.693Z" fill="#F9F9F9"/>
</g>
<defs>
<clipPath id="clip0_876_3557">
<rect width="79.7279" height="24" fill="white" transform="translate(0 0.960449)"/>
</clipPath>
</defs>
</svg>
