<?xml version="1.0" encoding="UTF-8"?>
<svg id="Layer_2" data-name="Layer 2" xmlns="http://www.w3.org/2000/svg" viewBox="0 0 101.65 135.43">
  <defs>
    <style>
      .cls-1 {
        stroke-width: 0px;
      }
    </style>
  </defs>
  <g id="LOGO_FA" data-name="LOGO FA">
    <path class="cls-1" d="m34.32,34.23v33.17c1.15,0,2.25-.03,3.34,0,5.69.17,11.47-.21,17.05.66,8.56,1.34,14.03,9.55,13.19,18.58-.75,8.1-8.09,14.86-16.41,14.99-5.6.09-11.21.02-17.25.02,0,1.16,0,2.16,0,3.16,0,7.13.02,14.27,0,21.4-.02,5.59-3.49,9.14-9.03,9.13-3.89,0-7.88.32-11.65-.41-8.62-1.68-14.34-9.76-13.46-18.2.92-8.84,8.05-15.38,17.14-15.57,5.39-.11,10.79-.02,16.35-.02v-33.26c-1.18,0-2.36.02-3.55,0-5.5-.13-11.1.3-16.49-.55C5,66-.81,57.67.09,49.21c.94-8.81,8.11-15.41,16.87-15.48,5.49-.04,10.98,0,16.78,0,0-6.95,0-13.58,0-20.21,0-1.9-.13-3.82.11-5.7C34.48,2.98,37.88.03,42.8.02c13.79-.03,27.59-.03,41.38,0,10.03.02,17.43,7.15,17.46,16.76.03,10.01-7.29,17.39-17.48,17.43-15.41.06-30.82.02-46.23.02-1.12,0-2.24,0-3.62,0Z"/>
  </g>
</svg>