<?xml version="1.0" encoding="UTF-8"?>
<svg id="Layer_2" data-name="Layer 2" xmlns="http://www.w3.org/2000/svg" viewBox="0 0 246.5 246.5">
  <defs>
    <style>
      .cls-1 {
        font-size: 31.14px;
      }

      .cls-1, .cls-2 {
        font-family: LucidaSansUnicode, 'Lucida Sans Unicode';
      }

      .cls-3, .cls-4 {
        stroke-width: 0px;
      }

      .cls-2 {
        font-size: 35.74px;
      }

      .cls-4 {
        fill: #fbb03b;
      }
    </style>
  </defs>
  <g id="BG">
    <circle class="cls-4" cx="123.25" cy="123.25" r="123.25"/>
  </g>
  <g id="LOGO_FA" data-name="LOGO FA">
    <path class="cls-3" d="m63.42,93.15v25.83c.9,0,1.75-.02,2.6,0,4.43.13,8.93-.16,13.28.52,6.66,1.04,10.92,7.44,10.27,14.46-.59,6.3-6.3,11.57-12.77,11.67-4.36.07-8.72.01-13.43.01,0,.91,0,1.68,0,2.46,0,5.55.02,11.11,0,16.66-.02,4.36-2.72,7.11-7.03,7.11-3.03,0-6.14.25-9.07-.32-6.71-1.31-11.16-7.6-10.48-14.17.72-6.88,6.27-11.97,13.34-12.12,4.2-.09,8.4-.02,12.72-.02v-25.89c-.92,0-1.84.02-2.76,0-4.28-.1-8.64.23-12.84-.43-6.65-1.05-11.17-7.54-10.47-14.12.73-6.86,6.31-12,13.14-12.05,4.27-.03,8.55,0,13.07,0,0-5.41,0-10.57,0-15.73,0-1.48-.1-2.98.08-4.44.48-3.77,3.13-6.06,6.96-6.07,10.74-.02,21.48-.02,32.21,0,7.8.01,13.57,5.57,13.59,13.05.03,7.79-5.67,13.54-13.6,13.57-12,.05-23.99.01-35.99.01-.87,0-1.74,0-2.82,0Z"/>
  </g>
  <g id="Layer_3" data-name="Layer 3">
    <text class="cls-2" transform="translate(114.23 118.29) rotate(.02)"><tspan x="0" y="0">WEBM</tspan></text>
    <text class="cls-1" transform="translate(116.56 148.52)"><tspan x="0" y="0">CONV.</tspan></text>
  </g>
</svg>